<svg viewBox="0 0 26 23" version="1.1" xmlns="http://www.w3.org/2000/svg" xmlns:xlink="http://www.w3.org/1999/xlink">
    <g id="Page-1" stroke="none" stroke-width="1" fill="none" fill-rule="evenodd">
        <polygon id="Path" stroke="#D6B64C" fill="#D6B64C" fill-rule="nonzero" points="21.9805257 6.4840593 24.2563607 6.19210444 24.6461524 7.88254865 24.1264307 8.70974064 25.0140607 15.5811598 24.8909691 15.5325044 24.7665087 15.4928592 24.6379459 15.4622242 24.5093831 15.438798 24.3780851 15.4243812 24.246787 15.4189754 24.115489 15.422579 23.9841909 15.4351936 23.8556281 15.4568184 23.7270653 15.4856512 23.6012378 15.5234942 23.4781454 15.5703474 23.3591563 15.6244094 23.2429032 15.6856787 23.1321205 15.7559589 23.0322788 15.8208325 22.9269666 15.8784981 22.8189192 15.9271535 22.7054013 15.9667987 22.5905154 15.997433 22.4728936 16.0172556 22.3552725 16.028068 22.2362834 16.0298701 22.117295 16.0226621 21.9996731 16.0046417 21.88342 15.9776104 21.7699014 15.9415695 21.6591187 15.8947163 21.5538065 15.8406551 21.4525976 15.7775836 21.3568591 15.7073034 18.5284773 14.2151973 18.4135914 14.1755513 18.2959703 14.1449163 18.1769812 14.1232915 18.0552568 14.1124791 17.9349005 14.1088748 17.8131761 14.1160828 17.692819 14.1323017 17.5751979 14.1575309 17.4575768 14.1917703 17.3454262 14.2350199 17.2346435 14.2872797 17.1293313 14.3467482 17.0294896 14.415227 16.9337519 14.4909137 16.8462198 14.5738085 16.7627903 14.6639121 17.0855653 19.6987782 16.4482217 19.7906794 15.8108789 19.8735705 15.1721681 19.9474521 14.5334565 20.0123235 13.8933785 20.0699876 13.2519317 20.1186408 12.6104856 20.1582845 11.9676716 20.188918 11.3248576 20.2123442 10.6834108 20.2267602 10.0405967 20.2321661 9.39641543 20.2285617 8.75496864 20.2159478 8.1121546 20.196126 7.46934055 20.1672947 7.25324572 20.2609974 7.0426221 20.3637103 6.83473297 20.4736312 6.63094706 20.5925616 6.43263238 20.7187 6.23978817 20.8538478 6.05241443 20.9944023 5.87051191 21.1439654 5.69544785 21.3007366 5.52585426 21.4629135 5.36309914 21.6341 5.20718247 21.80889 5.05810428 21.9926896 4.91723253 22.1800927 4.78319851 22.3729017 4.75447741 22.4071389 4.72028509 22.4359702 4.68198955 22.4575935 4.64095877 22.4738109 4.59719276 22.481019 4.55342674 22.4828204 4.50966073 22.4756131 4.46726271 22.4611971 4.42896716 22.441376 4.3934076 22.4143469 4.36331851 22.3819112 4.34006714 22.3440704 4.32228773 22.3044274 4.31134604 22.2611808 4.30861081 22.2161321 4.31271404 22.1728855 4.32502297 22.1296381 4.34417037 22.0899952 4.40434855 21.7656427 4.45768901 21.439488 4.50145502 21.1115297 4.53701458 20.7817692 4.56436843 20.4538094 4.58351583 20.1222451 4.59445752 19.7924816 4.59719276 19.4627166 4.59172229 19.1311494 4.57804536 18.8013837 4.43580563 18.8302157 4.29083065 18.8500376 4.14585568 18.8608492 3.99951272 18.8626514 3.85453775 18.8572456 3.70956278 18.8428296 3.56595506 18.8194033 3.42371532 18.7869676 3.28421157 18.7473232 3.14607432 18.7004715 3.01204104 18.6446088 2.88074299 18.5797366 2.75491542 18.5076565 0.970081021 17.9526371 1.42825656 15.7757815 3.8176102 16.3326135 5.32617158 7.64286031 6.52289965 1.2143468 11.6599415 0.543902065 11.9198024 2.14251074 18.7131158 6.97245142"></polygon>
    </g>
</svg>
