<svg viewBox="0 0 51 31" version="1.1" xmlns="http://www.w3.org/2000/svg" xmlns:xlink="http://www.w3.org/1999/xlink">
    <g id="Page-1" stroke="none" stroke-width="1" fill="none" fill-rule="evenodd">
        <polygon id="Path" stroke="#CC6D7B" fill="#CC6D7B" fill-rule="nonzero" points="29.0646623 3.14841762 26.6243038 6.4941406 23.3126821 5.42705808 22.9371372 5.36205808 22.4823869 7.09358018 23.1966044 7.35357721 23.2484981 7.70565595 22.5998298 9.60686159 23.9886628 10.193647 23.1187641 12.0948131 22.9494275 13.1491981 22.7036165 15.2453029 22.5861736 15.4547312 22.476924 15.6695749 22.3758683 15.8880289 22.2843719 16.1100935 22.1997036 16.3357685 22.1232293 16.5650539 22.0563142 16.7961442 21.9989583 17.0290393 21.9484304 17.2637393 21.9074618 17.5020505 21.8760524 17.7403601 21.852837 17.9804754 21.8391808 18.2205892 21.8350838 18.4607037 21.8391808 18.7008168 21.8514711 18.9427354 21.8746872 19.1810428 21.9047307 19.4211544 21.9456993 19.6576555 21.9948612 19.8941558 22.0522172 20.127045 22.1191323 20.3581285 22.1928755 20.5874065 22.4277621 21.7319832 22.2065317 23.7123997 21.9074618 24.1546948 21.8296216 25.0916316 20.0775347 25.2089744 15.5983098 25.6512635 13.6372828 23.947087 11.1190848 24.2070474 10.4868038 23.2682983 9.54725893 21.8764086 9.80809201 17.7475818 9.01603358 17.3323445 8.49573334 15.6515204 9.04198081 15.1315622 8.51621764 14.2902346 6.8474332 11.6163649 4.31148194 7.57746304 0.530087854 1.50712007 3.7351917 1.18210735 5.48727855 4.02051732 10.6670656 1.01237898 12.1214477 1.10446593 16.5105422 1.05210286 21.6780382 1.87185444 26.3388901 2.94077395"></polygon>
        <polygon id="Path" stroke="#CC6D7B" fill="#CC6D7B" fill-rule="nonzero" points="47.8883318 17.0832012 48.0836157 17.6681452 47.914279 18.5545828 47.901988 21.692266 47.7012427 21.9811167 47.5086906 22.2735772 47.3243319 22.5732577 47.1481671 22.8765487 46.9801964 23.1834494 46.8217848 23.4957654 46.6702014 23.813496 46.5281772 24.1330313 46.3943469 24.4579813 46.26871 24.7865409 46.1526323 25.1169054 46.0461144 25.4526845 45.9491551 25.7884628 45.8603905 26.1296556 45.7798192 26.4708477 45.7101722 26.8138439 45.6487193 27.1604498 45.5981915 27.507055 45.5558577 27.8554642 45.5230831 28.2056768 45.499867 28.5558895 45.4862108 28.9079062 45.4821145 29.2581158 45.4875767 29.6101303 43.0717994 29.6606758 43.0595091 28.7761252 43.1223272 28.6551764 43.1755869 28.5306163 43.2220177 28.4024458 43.2602545 28.2724705 43.2889328 28.1388839 43.3094171 28.0052974 43.3203422 27.869906 43.3217074 27.7345139 43.3148793 27.5973161 43.2998579 27.4637296 43.2752766 27.3301423 43.2411361 27.1983599 43.1988023 27.068383 43.1482745 26.9420159 43.0895527 26.81926 43.0240027 26.7019193 42.9488943 26.5881891 42.8669571 26.4798742 42.7781918 26.3769753 42.6839642 26.2794918 42.5815427 26.1892291 42.4750249 26.1061873 36.1126139 22.1490104 36.9442743 20.3129953 32.5551806 18.0978243 31.3356842 20.2606405 28.0240618 18.9589835 27.5187837 20.0006711 27.4272873 20.7426647 25.5181541 20.1162129 24.7793553 21.3402284 23.6363333 20.7282221 24.9350357 17.917287 25.7011469 10.8598713 27.5966239 7.29760594 27.6130112 7.22899549 27.6198393 7.15857944 27.6198393 7.08635779 27.6102802 7.01774734 27.5925269 6.94913689 27.5665804 6.88233204 27.5338051 6.82094398 27.4928365 6.76136077 27.4464057 6.70899994 27.3931468 6.66205591 27.334425 6.62233427 27.272972 6.58983427 26.6243038 6.4941406 29.0646623 3.14841762 31.1144539 3.13758404 33.5807589 3.33258853 34.9573016 3.43731242 36.0347737 3.65759453 37.0603521 4.02232292 38.1514803 4.25704831 37.8660659 5.22122374 39.2808462 5.92358684 37.9561972 8.89368732 40.0606136 9.94810002 41.5532333 7.16038504 42.9420662 7.72190558 43.8898044 5.66358683 43.2411361 4.30941062 45.6951509 4.15413076 49.5379979 4.11440762 49.5639444 4.45205056 44.8771459 13.5536175 43.0854556 17.0308449"></polygon>
    </g>
</svg>
