<svg viewBox="0 0 18 30" version="1.1" xmlns="http://www.w3.org/2000/svg" xmlns:xlink="http://www.w3.org/1999/xlink">
    <g id="Page-1" stroke="none" stroke-width="1" fill="none" fill-rule="evenodd">
        <polygon id="Path" stroke="#D6B64C" fill="#D6B64C" fill-rule="nonzero" points="1.90009203 28.0547642 1.57375873 18.2717336 1.11716506 14.142809 1.15007321 12.647756 1.28033209 11.3479306 1.15007321 10.697109 1.08562912 9.5599694 1.1829806 8.97422164 1.60666613 7.77198209 4.73151896 5.46509552 9.39205974 2.63566343 12.1302481 2.1493194 14.7038979 1.43336045 15.2907504 2.21440672 15.9749545 2.73329328 16.0078626 3.22144254 15.5841771 3.54687388 14.9328805 5.00949776 15.5183616 5.46509552 15.5183616 5.8863403 15.0631393 6.43956119 14.8026208 7.28385149 15.1604916 8.68315373 15.3881019 8.97422164 15.6486212 9.3321791 16.0723067 9.7877597 16.5288996 9.39726194 17.1157522 9.13692985 17.2460118 9.5599694 16.5001058 10.8598142 16.8264391 12.2247269 16.5974573 12.5826746 16.0106048 12.6152149 15.8159011 12.2247269 15.4566596 11.1852254 15.1961411 11.6082582 14.4145856 12.3548896 14.1540664 12.8429993 14.3487701 13.1033239 14.8382711 13.6547037 15.0658815 14.2078896 15.2290485 14.5983716 15.0987896 16.2560985 15.4895678 17.0370478 15.3264007 17.5884097 15.8474378 18.1415769 16.1737718 19.3111731 16.1408644 19.8317933 15.6198266 20.9362963 14.7724556 21.7822918 14.5448445 22.3336321 14.4145856 22.9193149 14.4145856 26.267053 11.4158788 27.2431575 8.64615378 28.0873007 6.43037468 28.6078828 4.63690889 28.8681731 3.39876046 28.8031007 2.42112978 28.5102739"></polygon>
    </g>
</svg>
