<svg viewBox="0 0 48 18" version="1.1" xmlns="http://www.w3.org/2000/svg" xmlns:xlink="http://www.w3.org/1999/xlink">
    <g id="Page-1" stroke="none" stroke-width="1" fill="none" fill-rule="evenodd">
        <polygon id="Path" stroke="#8AA1AB" fill="#8AA1AB" fill-rule="nonzero" points="8.07396698 5.77327468 16.535861 6.76755206 17.178675 2.49264123 46.8247112 4.80425187 46.5019362 13.5919373 46.499201 13.6586997 43.3685603 15.5641162 43.333 15.5857686 43.2030692 15.5135944 43.0690359 15.4468327 42.9308994 15.3872887 42.7913949 15.3349624 42.647788 15.2916576 42.5028122 15.2555705 42.35647 15.2285055 42.2073918 15.2086575 42.0583136 15.1960265 35.5576854 14.7016303 14.7783804 16.6395086 14.7729092 16.6395086 14.6101541 14.3100814 14.5841682 14.2487323 14.5499759 14.190992 14.5089451 14.1368613 14.4610766 14.0899468 14.4063689 14.0484464 14.348926 14.0141629 14.2860118 13.9889017 14.2203632 13.9726625 7.65682148 14.2721891 7.65818872 14.2072318 7.70742596 12.5886938 8.74139889 9.07547168 1.91526112 7.09596897 1.16987013 1.00928909 8.89321233 3.05746475 8.89321233 3.12423318"></polygon>
    </g>
</svg>
