<svg viewBox="0 0 75 118" version="1.1" xmlns="http://www.w3.org/2000/svg" xmlns:xlink="http://www.w3.org/1999/xlink">
    <g id="Page-1" stroke="none" stroke-width="1" fill="none" fill-rule="evenodd">
        <polygon id="Path" stroke="#8AA1AB" fill="#8AA1AB" fill-rule="nonzero" points="53.2777215 39.1784269 52.3192872 36.7731978 51.308749 35.3915254 50.4613779 34.4004731 48.5390245 33.03505 46.0627263 36.4169299 44.0910115 40.0898694 43.4218899 41.0808746 42.5100747 42.3973799 41.7518283 43.5655851 40.8646938 44.9326963 39.6909888 47.1587403 39.1041362 48.7030224 38.4034782 50.7680612 37.8495333 52.7173388 36.5291151 56.3264925 35.9271799 58.2105866 35.4870406 59.1056112 33.4824182 61.7382112 33.2945705 62.1287567 32.8708849 62.9568537 32.3333938 63.6728455 31.1610599 64.8589239 30.361679 65.8009082 29.1893452 68.1910903 27.70576 71.4562701 27.3807973 72.0908545 26.9077503 72.7254358 26.4031668 73.0978664 25.1321101 74.1717619 23.3550987 75.7807791 22.2965703 76.9016545 21.4971894 77.8598142 20.7814488 79.2102642 20.4222073 80.3799187 20.1123271 81.7122619 19.7791376 84.329903 19.355452 85.5645851 18.3449139 88.0339119 16.8133385 90.4399194 15.6067258 92.3903597 14.4508457 93.9015216 14.1245119 94.3244993 13.8310856 94.6986701 13.3100483 95.575347 13.0810661 96.1284634 12.6409267 96.5514328 12.4297696 96.665309 11.9567225 96.8605246 8.7358894 104.027263 8.34511142 104.661675 7.8885182 105.896149 6.61746148 109.503701 6.06351663 110.837528 5.92777268 111.07429 5.47666408 111.86048 4.79245983 112.885231 4.22206113 113.826837 2.75492984 116.980531 2.07072558 116.655226 1.5332345 115.973888 1.1095489 115.128085 1.1095489 114.15215 1.69640145 112.543648 2.6740319 110.967657 2.75492984 110.430875 2.72339337 110.056753 2.8536527 109.829026 3.21152306 109.342846 4.0918018 108.236732 4.23851498 107.488473 4.939173 106.042549 4.74309843 105.375611 5.15033019 104.856879 4.57993149 103.99473 3.45558786 103.766991 3.47204171 103.197643 4.48257978 100.809966 6.11287802 97.4606313 7.90497205 95.1867179 9.0622233 93.4622746 9.64770462 92.4066284 10.1372055 91.8209575 10.8378635 91.025597 11.424716 90.5049955 11.7496788 90.1145418 12.1089203 89.4655918 12.8740224 87.9218351 13.8516528 86.1502866 14.3411537 84.6209493 14.8457371 83.4025269 16.4595816 79.3566978 17.1437858 78.2177664 18.7247226 75.3740075 19.946418 73.3256634 20.7444277 72.4000104 21.1845671 71.9118694 21.7878734 71.3279067 22.3089107 70.8885769 22.7655039 70.677047 23.0369917 70.0912694 23.3633256 69.328309 24.8619934 66.9381493 26.2962171 65.2476515 27.1106806 64.0127597 27.7468946 62.5825836 28.6107195 61.7544843 29.3072641 60.7311037 29.9763857 59.9500022 30.5632382 59.3967194 31.0513679 58.4709582 32.3882399 56.2125784 32.9641232 54.9902507 34.1967877 52.3755843 35.3211313 49.0447866 37.4203631 44.411894 41.8697473 35.7170515 45.3332741 30.3873507 43.5082724 29.2172082 48.9023795 24.6812151 51.2977799 17.3035296 56.1214882 12.7363353 54.49119 7.2265297 54.4267459 6.9009259 54.6049954 6.21896396 54.5885417 5.37419403 56.0721268 5.77939493 56.4299971 6.05616082 56.7069696 6.57713015 56.9194979 6.81952478 57.2458318 6.96604672 57.7833229 7.03116754 58.5648789 7.06372791 59.0859161 7.16140903 59.8194817 7.47073194 60.2267136 7.82708552 62.8099616 3.13109299 64.6843246 0.578609851 65.3849828 1.65134679 65.7099454 2.52870463 65.9060199 3.58514343 66.0527332 4.73925597 66.1007236 5.45559612 65.9553817 6.5120091 65.2218158 9.3067553 70.0441529 10.6398896 69.735644 13.1758788 74.1288113 13.0293645 72.401161 18.7668037 71.3741693 20.8142722 69.1748431 25.4299913 65.8182663 29.573497 60.1704963 33.7837739 59.6330052 33.9465396 59.1764121 34.1255806 55.3138804 37.5707261"></polygon>
        <polygon id="Shape-path" stroke="#8AA1AB" fill="#8AA1AB" fill-rule="nonzero" points="48.6295205 44.2184007 47.2282044 46.0050366 47.0005934 45.8260119 46.723621 45.6795381 46.2999354 45.6795381 45.696629 45.6632627 44.7519061 45.6469881 43.7907295 45.323297 42.8460066 44.9326963 42.503219 44.7536709 42.1768851 44.3142433 41.9821817 43.9742739 41.7518283 43.5655851 42.5100747 42.3973799 43.4218899 41.0808746 44.0910115 40.0898694 46.0627263 36.4169299 48.5390245 33.03505 50.4613779 34.4004731 51.308749 35.3915254 52.3192872 36.7731978 53.2777215 39.1784269 52.3782466 39.7969067"></polygon>
        <polygon id="Shape-path" stroke="#8AA1AB" fill="#8AA1AB" fill-rule="nonzero" points="41.8697473 35.7170515 37.4203631 44.411894 34.7329076 42.997759 33.8526289 44.444444 32.4842204 44.5095448 36.42765 37.1801007 36.6717148 36.6592642 36.9322335 36.270444 37.2421135 36.0425769 37.6987067 35.7333276 38.1059385 35.5380119 38.5556759 35.4078015 40.8194458 31.476097 43.5082724 29.2172082 45.3332741 30.3873507"></polygon>
    </g>
</svg>
