<svg viewBox="0 0 122 210" version="1.1" xmlns="http://www.w3.org/2000/svg" xmlns:xlink="http://www.w3.org/1999/xlink">
    <g id="Page-1" stroke="none" stroke-width="1" fill="none" fill-rule="evenodd">
        <g id="Desktop-HD" transform="translate(-491.000000, -5182.000000)" fill="#CC6D7B" fill-rule="nonzero" stroke="#CC6D7B">
            <g id="Viz-Comparisons" transform="translate(-0.000000, 3938.000000)">
                <g id="UES-&lt;&gt;-Harlem" transform="translate(100.000000, 1191.000000)">
                    <g id="Harlem-Zone-Comp" transform="translate(392.000000, 54.000000)">
                        <polygon id="Path" points="109.539785 150.774754 110.806016 152.657288 112 155.318783 97.7558465 167.212857 96.7443812 166.349029 94.2499446 165.09073 88.9340531 162.793825 85.6448936 168.326345 72.2410907 192.048227 64.5410324 205.813231 62.7614654 208 45 198.249289 45.7072649 197.080982 49.6846767 190.250795 50.9471063 188.20371 55.6469922 180.36475 57.0957437 177.8882 59.0464235 173.539213 70.7238937 151.578703 71.6288885 150.535068 74.8458012 145.686367 81.0058465 135"></polygon>
                        <polygon id="Path" points="46.0161325 196.831858 45.3151735 198 36.6323296 193.187626 36.6323296 193.187626 36.6285622 193.187626 27.395504 188.210441 24 186.383291 24.1055205 186.183603 25.032595 184.431326 35.4188437 164.806186 32.1213215 162.923988 31.601256 162.474657 37.1900834 152.394471 41.2224792 145.92881 44.0338502 141.505129 45.431999 139.617806 45.6995706 138.214791 48.0662481 134.28032 54.7291236 120 62.334148 124.119386 63.2310741 124.803449 68.2809909 127.969093 72.5093557 130.196012 81 134.759648 74.8948762 145.444505 71.7066448 150.292521 70.8097187 151.336008 59.2363623 173.293416 57.3030743 177.641788 55.8672395 180.117988 51.2092567 187.95584 49.9580827 190.002636"></polygon>
                        <polygon id="Path" points="55 119.302666 48.1600128 133.710618 45.7304247 137.680254 45.4557405 139.095809 44.0204263 141 30 134.451151 30.1354071 127.19689 31.0097493 120.310235 30.5493655 116.546948 30.1354071 107 34.8437009 109.690303 35.4201484 108.879184 35.9037459 108.7885 41.9467656 112.481342 46.593161 114.949933"></polygon>
                        <polygon id="Path" points="26.2402903 67.5475688 29.9835451 69.6567558 30.3323655 84.0018647 30.1110707 90.6880589 30.0210526 104.723143 30.1523292 107.834213 30.55366 117.281917 31 121.006084 30.1523292 127.821149 30.0210526 135 18.014882 128.429363 11.537326 124.296478 11.4285542 124.231667 3.81076841 119.96412 5.73490633 116.703596 9.6131881 111.049953 10.41585 105.849912 10.1945554 101.49737 10.3295826 97.6433525 17.1034483 84.6799645 20.846703 77.0562582 0 65.5281214 7.11518456 52 18.8850574 58.2629968 24.0123412 71.4019369"></polygon>
                        <polygon id="Path" points="54.7599139 120 46.4466743 115.6371 41.8520105 113.162743 35.8762721 109.461276 35.3980588 109.552172 34.8280294 110.365186 30.1721564 107.668599 30.0382569 104.517506 30.1300736 90.3018646 30.3557899 83.5296545 30 69 71 91.5037788"></polygon>
                        <polygon id="Path" points="95.1305422 108.252675 92.583356 112.153156 90.0856693 118.198811 84.6562419 128.059641 81.541747 134 72.9635584 129.429734 68.6915962 127.19958 63.5896114 124.029338 62.6834374 123.34428 55 119.21891 71.1626332 91 83.7843363 97.8961781 90.1580102 101.681762 97 105.387295"></polygon>
                        <polygon id="Path" points="109.787723 151 81 135.030711 84.1381068 129.02497 89.6086961 119.055608 92.1253185 112.943412 94.6918157 109 120 126.188889 119.750639 127.179751 119.524296 128.175665 119.324808 129.176632 119.152173 130.182651 119.006392 131.188668 118.88363 132.204791 118.787724 133.220911 118.722505 134.237029 118.484653 136.137818 118.26982 138.038597 118.081841 139.944419 117.916879 141.850231 117.774935 143.761088 113.65473 150.818018"></polygon>
                        <polygon id="Path" points="85.3238873 16.6233833 88.4299605 18.1667998 102 26.573039 102 40.373197 96.5719854 48.1895349 90.1657081 58.5427772 86.1498891 66.5184987 88.9742863 67.9717888 98.5285068 73.3653817 93.7513955 79.5079771 91.3076475 85.0611847 84.0867882 98 71.4683645 91.1136763 30.6745052 68.860737 26.8756555 66.7482286 30.5108272 60.7502282 32.4102516 53.0440629 12 41.1823091 22.311707 22.5872192 38.1656236 30.7236361 43.7002198 21.8330047 46.2505494 17.0879067 47.9368125 13.3667053 55.5878035 0 69.1616482 7.43766924 84.95466 16.4435678"></polygon>
                    </g>
                </g>
            </g>
        </g>
    </g>
</svg>
