<svg viewBox="0 0 48 54" version="1.1" xmlns="http://www.w3.org/2000/svg" xmlns:xlink="http://www.w3.org/1999/xlink">
    <g id="Page-1" stroke="none" stroke-width="1" fill="none" fill-rule="evenodd">
        <polygon id="Path" stroke="#8AA1AB" fill="#8AA1AB" fill-rule="nonzero" points="22.9124384 17.7869391 22.6789177 19.134287 25.2886129 22.4926441 27.4695036 28.0408713 27.879189 28.1566073 33.2337741 20.3441744 40.8293383 25.9901548 46.5553721 30.4423712 46.4597786 30.5309799 46.3682822 30.6268218 46.2836139 30.7280886 46.2044077 30.8365888 46.1279334 30.9505138 46.0582872 31.0734803 45.9913721 31.2036801 45.9285533 31.3447296 45.8793914 31.4640792 45.8329598 31.5924701 45.786529 31.7280943 45.7400982 31.8763765 45.6595269 32.1638989 45.5134057 32.7226668 45.4505876 32.9541297 45.3809406 33.1910171 45.3126596 33.4043962 45.2703258 33.5237437 45.227992 33.6376662 45.1842916 33.7479719 45.1392267 33.8528527 45.0927959 33.9559252 45.0436332 34.0571892 44.9931054 34.1530283 44.9412117 34.2488674 44.8797595 34.3519395 44.8169407 34.4513949 44.7500256 34.549042 44.6803794 34.6448807 44.6093672 34.7371028 44.5342581 34.8275166 44.4564179 34.9143137 44.3758466 34.9993025 44.2911783 35.082483 44.205144 35.1620468 44.1150135 35.2398024 44.020786 35.3157496 43.9238274 35.3898886 43.8241369 35.4622192 43.7217154 35.5309332 43.6138316 35.5996473 40.5370958 36.7316144 40.0304518 35.4224373 39.9867521 35.3591481 39.9348591 35.3012835 39.8747714 35.250652 39.8105873 35.2072536 39.7409411 35.1710882 39.6671979 35.1457724 39.5920888 35.129498 39.5142486 35.1222649 39.4364084 35.1240732 39.359934 35.1367311 39.2848249 35.1584303 39.2138128 35.1891709 38.3562052 35.6177298 36.1602924 31.6666114 35.2794694 33.2163333 32.8254546 32.2778227 32.2396052 32.6141683 31.649658 32.9432799 31.0542493 33.2615408 30.454743 33.5725676 29.8511403 33.8745522 29.2434407 34.1674946 28.631644 34.4532032 28.0143851 34.7280614 27.3943944 34.9956859 26.7716727 35.2542686 26.1434887 35.502001 25.5125736 35.7424999 24.8789275 35.973957 25.8403218 37.9268589 30.07237 46.0527597 29.4728643 46.4523504 28.8774549 46.8609804 28.2888737 47.2750324 27.7043894 47.6981243 27.1267333 48.1284468 26.5531741 48.566 25.9864431 49.0107837 25.4238091 49.4627981 24.8680024 49.9220431 24.3176586 50.3885186 23.774143 50.8622241 23.2360895 51.3413515 22.703499 51.8295175 22.1777358 52.3231061 21.6588015 52.8239239 19.9968452 45.6350868 17.5305401 41.8072529 17.0634995 40.0894798 15.5572229 37.6140351 17.0675958 36.0444791 17.6288647 34.8980392 17.6916835 34.7063621 17.7463076 34.5110681 17.7927391 34.3139655 17.8309759 34.1150543 17.8596542 33.9143345 17.8801385 33.7136144 17.8924288 33.5110856 17.8951599 33.3085565 17.8896977 33.1060271 17.8746756 32.9034972 17.8514602 32.7027754 17.8186856 32.5038615 17.7790829 32.3049473 17.7285551 32.1078412 17.6370587 31.9342428 17.5373682 31.766069 17.4294845 31.6015118 17.3134075 31.4423793 17.1905016 31.2886715 17.0607677 31.1421969 16.9242064 31.0011471 16.7808162 30.8655221 16.6319639 30.7389386 16.4762834 30.6177801 16.3165067 30.5038547 16.1499012 30.398971 15.9791993 30.3013206 15.8043998 30.2127118 15.6268698 30.1313363 15.443877 30.0590025 15.258153 29.9939019 15.069698 29.9396515 14.879877 29.8926345 14.6859591 29.8564675 14.4920418 29.827534 12.9734749 29.6358487 11.6160513 29.3230033 11.5505022 29.2886445 11.4890492 29.245244 11.4344244 29.1946099 11.3852625 29.1367424 11.3456591 29.0734498 11.3128845 29.0065404 11.2910343 28.9342059 11.2760129 28.8618714 11.2719159 28.7859201 13.9744727 25.4223135 15.3755959 24.3878952 21.3938722 16.7307524"></polygon>
        <polygon id="Path" stroke="#8AA1AB" fill="#8AA1AB" fill-rule="nonzero" points="21.3938722 16.7307524 15.3755959 24.3878952 13.9744727 25.4223135 11.2719159 28.7859201 9.29723346 25.5109259 4.90950489 28.4531803 2.32575691 24.3517265 0.975160711 22.6590223 6.0648172 19.5213076 3.66269615 12.6198555 5.07747562 6.35648064 5.7794028 5.56245747 5.84631791 5.33094172 5.92279296 5.103043 6.00746128 4.87695264 6.10032289 4.65628796 6.20274443 4.43743157 6.31335925 4.22400102 6.43080217 4.01418764 6.55780503 3.80980002 6.69163525 3.60902957 6.83229357 3.41549377 6.98114591 3.22557521 7.13819227 3.0428913 7.30070082 2.86563338 7.47003747 2.69561025 7.64620148 2.53101317 7.82782916 2.3736509 8.01628421 2.2253323 8.21020218 2.08243976 8.40821641 1.94678216 8.61305875 1.82016825 8.82063293 1.70078928 9.03366928 1.59045406 9.25080191 1.48735387 9.47203229 1.39148869 9.69599376 1.30647608 9.9240515 1.22869856 10.1534752 1.16177368 10.4088461 1.3100937 10.658754 1.46564851 10.904565 1.62843834 11.1449137 1.79846297 11.3811655 1.97391365 11.6119543 2.15840794 11.8372817 2.34832822 12.0571462 2.54367448 12.2729136 2.74625545 12.4804871 2.95426241 12.6839642 3.16769521 12.8806133 3.38836258 13.9717416 5.8880257 14.2353058 6.3022196 14.4920418 6.72002941 14.7419498 7.14326385 14.9850297 7.5701142 15.2212814 8.00238903 15.4507051 8.43647096 15.6719355 8.87416871 15.8877029 9.31729081 16.0952763 9.76221992 16.2946565 10.2107646 17.1126614 12.4118652 17.2683419 13.4264922 17.7230922 14.4808993 18.0863468 15.5877455 18.2420272 16.4214905 19.2553153 15.4846573 16.8791408 10.340987 18.6844873 9.14365947 23.3712857 12.970725 23.2415525 14.8209119"></polygon>
    </g>
</svg>
