<svg viewBox="0 0 38 69" version="1.1" xmlns="http://www.w3.org/2000/svg" xmlns:xlink="http://www.w3.org/1999/xlink">
    <g id="Page-1" stroke="none" stroke-width="1" fill="none" fill-rule="evenodd">
        <polygon id="Path" stroke="#CC6D7B" fill="#CC6D7B" fill-rule="nonzero" points="33.2776035 51.7659334 33.034516 53.0570447 32.7122198 53.4922273 30.2294493 55.2473878 29.4878961 55.5326893 23.1785453 61.6647017 23.0037402 62.3093033 22.9258976 64.1275306 22.9067786 65.4365652 21.9740324 67.6880713 18.1474522 66.2707287 18.8057004 65.1946205 18.9996245 64.5951735 18.2990404 63.1886282 18.0778038 62.1847167 17.9999612 61.3505249 18.3768831 59.7742117 18.2853838 59.5141993 19.5458884 57.1686453 19.6496784 55.5778319 17.5725091 54.7435944 17.9999612 52.5676881 18.5462251 49.0626809 20.6616332 49.7669409 21.9344285 43.2767586 22.2717465 41.5701835 22.8685398 40.9706192 23.3492525 39.6540953 23.8040179 39.1141178 25.2447892 36.7555252 26.7647692 34.2524048 24.1809398 30.3964865 24.8815239 29.5223408 25.7514492 30.7342229 26.6732699 31.0484794 27.0105879 30.8389752 27.1922205 30.3693952 26.3482425 28.1677636 26.5954272 27.6855305 27.0761399 27.4904693 27.4394052 27.7505508 27.5950905 28.4278436 27.9583566 28.5976178 28.3612259 28.4025581 29.0358626 25.6391789 29.9317352 25.6789142 31.0365545 26.031113 31.2045313 26.4483318 31.9583759 26.7210584 32.697198 26.5657308 32.8283012 26.1737984 33.6190187 26.069042 34.177574 25.5741575 35.1512893 25.2616928 36.2246989 27.7541631 34.55313 33.0441701 33.560295 35.1734725 33.4428484 36.5424189 33.9495083 38.1352894 35.1376327 41.3011023 36.2574745 43.0708873 36.6958514 44.1453869 35.0980287 43.4230353 35.293318 45.5142315 32.8679052 46.7349821 31.6128636 47.0582261 31.0761592 45.6713406 30.5804239 46.070433 30.7074308 47.038362 31.1157632 47.6740127 32.0608 49.8048625"></polygon>
        <polygon id="Path" stroke="#CC6D7B" fill="#CC6D7B" fill-rule="nonzero" points="28.9593852 3.49915506 28.2765549 4.52161986 27.5186138 5.65968885 22.7073921 3.79180488 21.3157842 3.88032228 20.4390306 4.17297118 19.1143399 4.84678352 21.7049976 8.7956456 20.7804458 9.70426299 21.101376 13.3314387 19.7958043 13.4181428 18.8999309 19.6155153 19.0569822 20.1826736 20.2341811 20.0255313 26.2430866 18.8821791 26.2335271 17.3775618 30.2062332 16.8103902 28.9989899 13.3892414 31.2960306 12.9304316 31.8313691 12.6956071 32.7286076 12.3054359 33.0877766 12.7732798 33.8088456 17.4751005 34.110656 19.7130522 34.0915371 21.1779037 34.4711909 22.6535745 35.1512893 25.2616928 34.177574 25.5741575 33.6190187 26.069042 32.8283012 26.1737984 32.697198 26.5657308 31.9583759 26.7210584 31.2045313 26.4483318 31.0365545 26.031113 29.9317352 25.6789142 29.0358626 25.6391789 29.3226512 24.0208568 29.6927449 23.4573289 30.5394548 22.4277999 30.5735956 21.4452236 30.286807 21.2104156 29.7555657 21.4163242 28.8009686 22.2796914 28.0334674 23.5042897 27.6319633 23.1647268 26.8726563 22.3031721 24.6780403 23.3200589 23.6114598 23.9540284 21.9562787 23.0364874 18.7046416 24.9510335 17.0877 26.0852973 17.321228 26.7698241 12.9197046 28.861309 12.6096992 28.6644437 12.9511143 25.7529664 11.8312732 24.9112979 9.60114963 25.1081693 8.01425245 24.3640297 7.07877515 24.2285668 7.52671145 23.4464918 6.01765694 23.0346812 5.77456942 20.7678916 7.34234762 20.5637881 9.98080351 20.5240511 12.3174482 19.9478631 14.7810997 19.2632977 16.5632862 18.667235 16.0675517 17.3576927 15.9501051 16.8302593 16.1836324 16.4780336 16.9047014 16.1456762 17.2160721 15.7157777 17.1969523 15.2858776 16.6807328 15.0311882 16.6124497 12.549293 15.9309853 11.9423589 15.6086899 10.0763786 11.6851473 11.36613 11.3928964 9.538075 8.83228313 10.4177847 6.41642981 10.750158 3.98282271 11.0247266 1.29520338 11.297488 1.0507499 8.0929527 1.64481205 7.49683469 5.98897771 7.35954649 8.82272364 6.86097224 16.1549539 4.78897671 16.9729845 4.41684471 19.9719746 2.0322823 21.1109355 1.42710176 22.834399 1.30064574 23.8381587 1.61317252"></polygon>
    </g>
</svg>
