<svg viewBox="0 0 35 47" version="1.1" xmlns="http://www.w3.org/2000/svg" xmlns:xlink="http://www.w3.org/1999/xlink">
    <g id="Page-1" stroke="none" stroke-width="1" fill="none" fill-rule="evenodd">
        <polygon id="Path" stroke="#8C9F5B" fill="#8C9F5B" fill-rule="nonzero" points="20.78888 1.96661771 25.0087708 0.690131457 25.2586866 0.686520413 29.9415355 0.625133183 32.2139949 2.27896658 32.4092842 3.08782009 33.6165275 3.98694103 34.3171115 5.23811624 33.37344 6.92980004 32.8162506 7.38476321 32.0105113 7.5544713 31.7250879 7.99860006 31.6349546 8.7406154 30.8551626 10.0170168 30.1149746 10.6308398 29.4785766 13.3135717 26.8305612 13.7179622 25.1166579 13.5879793 24.9213678 14.2523326 24.0650992 14.7867015 22.9875932 15.7128142 22.6366185 16.350077 22.5587758 17.1191208 22.9739365 17.8105332 23.9353611 18.3701594 24.9350245 18.7474549 25.6492652 18.7871696 25.1166579 19.6735369 22.6625658 22.7098829 21.6055448 21.2079664 20.679627 22.258588 18.530078 25.5241206 16.1114935 29.0837938 16.095105 29.7426469 16.3955502 30.5585368 20.9950948 33.8491151 20.7697611 33.8798008 19.562517 39.5221292 17.7707703 41.2169424 17.3474161 41.8179729 16.6072281 42.729439 13.1275253 46.1297801 13.0264665 46.2488987 13.0496827 45.2291686 12.7779159 44.694935 12.803864 43.1698284 12.2589653 42.5309022 12.0759666 41.9461196 11.3753833 42.7799761 10.0124539 43.926067 9.16847592 44.2383075 8.81750128 44.1083574 8.2207072 42.3107071 7.50646724 41.1898691 7.98717992 38.8705496 8.55802595 37.1107248 7.73999527 33.8274552 8.32449793 29.8780276 7.79188988 30.2173802 6.97385995 31.0116058 6.33746192 31.2209919 5.83080193 31.1686456 4.51976789 28.3798103 4.53342453 27.0241785 5.58498323 26.5692891 6.54504263 25.4230336 7.22104386 23.5583134 7.01346389 22.6467014 5.36374588 21.8253427 3.83147524 18.5687358 1.4688825 15.4528535 1.45659182 14.5159072 4.06500327 13.9418206 4.66316256 12.3134214 4.87074253 10.0332647 5.54537854 9.87619801 7.40267726 7.32157401 10.3361153 7.36129295 19.4382421 7.96068637 19.4901367 7.24394145 18.8537394 5.96751107 18.5287121 4.27220283 19.0353721 3.50488303 20.451562 2.67075565"></polygon>
    </g>
</svg>
