
<svg viewBox="0 0 108 210" version="1.1" xmlns="http://www.w3.org/2000/svg" xmlns:xlink="http://www.w3.org/1999/xlink">
    <g id="Page-1" stroke="none" stroke-width="1" fill="none" fill-rule="evenodd">
        <g id="Desktop-HD" transform="translate(-302.000000, -5182.000000)" fill="#8C9F5B" fill-rule="nonzero" stroke="#8C9F5B">
            <g id="Viz-Comparisons" transform="translate(-0.000000, 3938.000000)">
                <g id="UES-&lt;&gt;-Harlem" transform="translate(100.000000, 1191.000000)">
                    <g id="UES-Zone-Comp" transform="translate(203.000000, 54.000000)">
                        <polygon id="Path" points="0 177.669823 2.22619271 171.410842 5.56789658 164.181867 27.7525595 124 50 136.958966 46.1415877 144.253061 34.5711802 165.837171 26.9267916 180.954455 21.9673556 190"></polygon>
                        <polygon id="Path" points="67 146.976968 61.0359477 158.408299 54.4567474 169.354801 52.3998462 173.830224 48.2187621 181.544165 43.629181 188.569466 32.950596 208 25.0834295 203.550437 17 198.998826 18.1582085 197.207495 22.3729335 190.297085 27.3085352 181.378412 34.916186 166.473162 46.430988 145.191789 50.2708573 138"></polygon>
                        <polygon id="Path" points="66.8740837 147 50 137.99117 61.0231734 119.115515 73.8786947 96.0348938 75.10026 94 91 102.843391"></polygon>
                        <polygon id="Path" points="84 79.3460813 75.607298 94.1029078 74.3812337 96.1334498 61.4783667 119.164712 50.4145959 138 28 125.204867 29.1433536 122.950991 32.1987837 117.159824 36.1543006 110.129863 43.9242397 95.7184032 60.5052997 66 60.5052997 66"></polygon>
                        <polygon id="Path" points="91.1384128 27.6519909 89.9506444 29.8996755 89.8154514 30.1558201 94.1657733 32.4995474 105.995173 38.8838951 106 38.8838951 106 38.8838951 105.869635 39.1592472 104.020387 42.9757196 99.0858377 51.761163 94.440988 60.9562257 86.9232838 73.9160619 84.3159876 79 61 65.6177131 65.2634123 57.8250607 66.9243565 54.7899198 82.5053655 26.2111604 85.518241 27.8376975 88.9318675 21.2354535 92.3937777 14.5434555 96.9275758 5.76364729 100.220494 0.06404079 100.254291 0 101.456546 0.717258965 104.445281 2.47837804"></polygon>
                    </g>
                </g>
            </g>
        </g>
    </g>
</svg>
